<?xml version="1.0" encoding="utf-8"?>
<!-- Generator: Adobe Illustrator 25.4.1, SVG Export Plug-In . SVG Version: 6.00 Build 0)  -->
<svg version="1.1" id="Layer_1" xmlns="http://www.w3.org/2000/svg" xmlns:xlink="http://www.w3.org/1999/xlink" x="0px" y="0px"
	 viewBox="0 0 200 200" style="enable-background:new 0 0 200 200;" xml:space="preserve">
<style type="text/css">
	.st0{fill:#FFFFFF;}
</style>
<path class="st0" d="M186.1,87l-9.2-14.2c-1.6-2.5-2.7-5.2-3.3-8.1l-3.5-16.6c-1.9-9.2-9.1-16.4-18.3-18.3l-16.6-3.5
	c-2.9-0.6-5.6-1.7-8.1-3.3L113,13.9c-7.9-5.1-18-5.1-25.9,0l-14.2,9.2c-2.5,1.6-5.2,2.7-8.1,3.3l-16.6,3.5
	C39,31.9,31.9,39,29.9,48.2l-3.5,16.6c-0.6,2.9-1.7,5.6-3.3,8.1L13.9,87c-5.1,7.9-5.1,18,0,25.9l9.2,14.2c1.6,2.5,2.7,5.2,3.3,8.1
	l3.5,16.6c1.9,9.2,9.1,16.4,18.3,18.3l16.6,3.5c2.9,0.6,5.6,1.7,8.1,3.3l14.2,9.2c7.9,5.1,18,5.1,25.9,0l14.2-9.2
	c2.5-1.6,5.2-2.7,8.1-3.3l16.6-3.5c9.2-1.9,16.4-9.1,18.3-18.3l3.5-16.6c0.6-2.9,1.7-5.6,3.3-8.1l9.2-14.2
	C191.3,105.1,191.3,94.9,186.1,87z"/>
</svg>
