<!-- Generated by IcoMoon.io -->
<svg version="1.1" xmlns="http://www.w3.org/2000/svg" width="25" height="25" viewBox="0 0 496 512">
<title></title>
<g id="icomoon-ignore">
</g>
<path fill="#42bfec" d="M384.497 141.708c0 0 0-1.817 0-2.808 0-36.708-14.582-71.911-40.539-97.868-25.955-25.956-61.159-40.538-97.867-40.538s-71.911 14.582-97.868 40.538c-25.956 25.956-40.538 61.16-40.538 97.868-29.328 1.575-56.89 14.51-76.843 36.061s-30.726 50.028-30.038 79.389c0.688 29.363 12.783 57.303 33.722 77.899 20.939 20.594 49.074 32.224 78.444 32.426h271.526c29.61 0 58.010-11.763 78.947-32.702 20.938-20.938 32.702-49.336 32.702-78.947s-11.764-58.010-32.702-78.947c-20.938-20.939-49.337-32.702-78.947-32.702v0.331z"></path>
<path fill="#ade0f3" d="M169.951 312.815l-43.602 92.82c-5.049 9.956-7.681 20.961-7.681 32.124s2.632 22.168 7.681 32.124c4.085 7.861 10.249 14.452 17.821 19.050 7.572 4.599 16.262 7.031 25.121 7.031s17.548-2.431 25.121-7.031c7.572-4.598 13.737-11.188 17.821-19.050 5.049-9.956 7.681-20.961 7.681-32.124s-2.632-22.168-7.681-32.124l-42.281-92.82z"></path>
<path fill="#ade0f3" d="M313.971 249.393l-43.107 92.491c-5.011 9.967-7.62 20.969-7.62 32.124 0 11.156 2.61 22.156 7.62 32.124 4.084 7.861 10.248 14.452 17.821 19.050 7.572 4.599 16.262 7.031 25.121 7.031s17.548-2.431 25.121-7.031c7.572-4.598 13.736-11.188 17.821-19.050 5.011-9.967 7.62-20.967 7.62-32.124 0-11.155-2.61-22.156-7.62-32.124l-42.777-92.49z"></path>
</svg>
