<?xml version="1.0" encoding="utf-8"?>
<!-- Generator: Adobe Illustrator 25.4.1, SVG Export Plug-In . SVG Version: 6.00 Build 0)  -->
<svg version="1.1" id="Layer_1" xmlns="http://www.w3.org/2000/svg" xmlns:xlink="http://www.w3.org/1999/xlink" x="0px" y="0px"
	 viewBox="0 0 1520 270" style="enable-background:new 0 0 1520 270;" xml:space="preserve">
<style type="text/css">
	.st0{fill:#028440;}
	.st1{fill:#018340;}
	.st2{fill:#028441;}
	.st3{fill:#0276BF;}
	.st4{fill:#068744;}
	.st5{fill:#058643;}
	.st6{fill:#078744;}
	.st7{fill:#078745;}
</style>
<g>
	<path class="st0" d="M930.5,56c-12.6,0-24.5,0-36.5-0.1c-0.9,0-2.2-0.9-2.6-1.7c-12.2-25.3-43.6-28.8-67.3-16
		c-26.8,14.5-39,37.7-37.7,67.9c0.9,20.1,16.2,35.9,36.6,38.9c25.6,3.8,52.5-9.7,63.7-31.9c0.3-0.6,0.5-1.2,1.1-2.8
		c-10.7,0-20.8,0-31,0c-10.1,0-20.3,0-31.1,0c1.6-9.2,3.1-17.9,4.7-27c33.8,0,67.6,0,102.2,0c-1.5,5.9-2.6,11.7-4.3,17.3
		c-15.8,53.3-72.1,80.9-116.9,73.9c-36.3-5.7-60.2-33.8-59.2-70.6c1.1-40.8,21.8-69.9,56.5-89.7c16.7-9.5,34.9-13.8,54.2-12.9
		c30.4,1.4,56.8,18.7,65.8,46.6C929.3,50.3,929.7,52.9,930.5,56z"/>
	<path class="st0" d="M469.1,119.9c2.5-13.7,4.7-26.4,7-39.2c4.3-24.2,8.6-48.5,13.1-72.7c0.3-1.4,1.8-3.6,2.8-3.6
		c10-0.3,19.9-0.2,30.4-0.2c-10.4,56.3-20.7,112-31.1,168c-9.6,0-18.9,0.1-28.2-0.1c-1.2,0-2.7-1.6-3.3-2.9
		c-14.6-30.1-29-60.2-43.5-90.3c-3.4-7-6.8-14-11.1-21c-3.4,19-6.8,38-10.2,56.9c-3.4,19-6.8,37.9-10.3,57.1c-10.9,0-21.7,0-32.6,0
		c10.4-56,20.7-111.7,31.1-167.7c9.6,0,19-0.2,28.3,0.2c1.3,0,3.1,2.1,3.8,3.7c17.3,36,34.5,72,51.7,108
		C467.5,117.1,468.1,118.1,469.1,119.9z"/>
	<path class="st0" d="M1222,172.9c10.5-56.8,20.8-112.3,31.1-167.8c0.6-0.3,1.1-0.7,1.5-0.7c22.8,0.2,45.7-0.6,68.4,0.8
		c37.7,2.4,60.5,28.8,58.6,66.6c-1.3,24.8-8.5,47.7-24.6,67.2c-15.6,18.9-36.2,29.8-60.2,31.7C1272.2,172.8,1247.4,172.3,1222,172.9
		z M1261.7,142.2c10.4,0,20.4,0.4,30.3-0.1c10.3-0.5,20.1-3.5,28.3-9.8c21.7-16.8,28.1-39.9,25.9-66c-1.1-13.1-7.6-23.4-20.3-28.5
		c-14.4-5.8-29.4-2.8-44.1-3.6C1275,70.6,1268.4,106.1,1261.7,142.2z"/>
	<path class="st0" d="M1047.7,172.1c-12.1,0-23.7,0-35.6,0c-10.1-25.8-20.2-51.5-30.4-77.5c8-0.5,15.4-0.8,22.9-1.5
		c22-1.9,31.8-24.2,30.5-38.1c-1-10.6-7.7-18.3-18.7-19.6c-10.5-1.2-21.2-1.2-32-1.7c-8.6,46.5-17.1,92.2-25.7,138.2
		c-11.2,0-22.2,0-33.9,0c1.5-8.5,3-17,4.6-25.4c7.2-39.1,14.5-78.1,21.7-117.2c1.3-7.2,2.8-14.4,3.9-21.6c0.4-2.3,1-3.5,3.7-3.5
		c22.5,0.4,45,0.2,67.4,1.2c11,0.5,21.9,3,30.3,11.1c10.4,10,13.7,22.8,12.3,36.5c-3,28.1-16.3,48.5-44.7,56.7
		c-0.5,0.1-0.9,0.5-1.7,0.9C1030.7,131,1039.1,151.4,1047.7,172.1z"/>
	<path class="st1" d="M147.1,6.1c0,1.3,0,2.6,0,3.8c0,72.1,0,144.2,0.1,216.4c0,3.9-0.9,5.9-4.9,7.1c-18.9,6-38.2,7.7-57.7,5.1
		c-10.4-1.4-20.7-4.6-30.9-7.3c-3.1-0.8-5.8-3-8.9-4.8C78.7,152.6,112.4,79.3,146.1,5.9C146.4,6,146.8,6,147.1,6.1z"/>
	<path class="st0" d="M1049.2,172.3c19.4-32.8,38.2-64.7,57.1-96.7c13.2-22.3,26.5-44.6,39.5-67c2-3.4,4-4.6,7.8-4.4
		c8,0.3,16,0.1,24.7,0.1c11.8,55.9,23.6,111.7,35.4,167.8c-12.6,0-24.7,0-37.2,0c-1.8-9.7-3.7-19.3-5.3-28.9
		c-0.5-2.8-1.4-3.9-4.4-3.9c-19.7,0.1-39.3,0.1-59,0c-2.8,0-4.1,1.1-5.3,3.4c-4.7,8.8-9.6,17.5-14.3,26.3c-1.3,2.6-2.9,3.5-5.8,3.4
		C1071.5,172.2,1060.7,172.3,1049.2,172.3z M1118.4,112c16.4,0,32,0,47.9,0c-3.8-22.1-7.6-43.9-11.4-65.7c-0.4-0.1-0.7-0.2-1.1-0.2
		C1142.1,67.9,1130.4,89.7,1118.4,112z"/>
	<path class="st0" d="M1354.4,172.3c7.9-13.3,15.2-25.8,22.5-38.2c24.1-40.8,48.3-81.6,72.2-122.6c3.1-5.4,6.3-8.1,12.8-7.4
		c5.8,0.6,11.7,0.3,17.5,0.1c3.4-0.2,4.5,1,5.1,4.3c7.1,34.3,14.4,68.6,21.6,103c3.8,18.2,7.7,36.4,11.5,54.7c0.4,1.8,0.6,3.6,1,5.8
		c-12.3,0-24.3,0-36.9,0c-2-10.5-4-21.2-6.2-32.3c-1.4-0.1-2.9-0.3-4.3-0.3c-19.2,0-38.3,0.1-57.5-0.1c-3.5,0-5,1.4-6.4,4
		c-4.6,8.5-9.4,16.8-13.9,25.4c-1.4,2.7-3,3.8-6.1,3.8C1376.7,172.2,1366.1,172.3,1354.4,172.3z M1459.8,44.6
		c-12.4,23.1-24.2,45.1-36.2,67.4c16.3,0,31.9,0,47.9,0C1467.6,89.8,1463.8,67.9,1459.8,44.6z"/>
	<path class="st2" d="M753.3,34.2c-20.2,0-40,0-60.3,0c-2.3,12.6-4.6,25.1-7,38.1c19.9,0,39.4,0,59.2,0c-2,10.2-3.8,19.9-5.7,29.8
		c-19.8,0-39.1,0-59.1,0c-2.5,13.2-4.9,26.3-7.5,40.2c20.3,0,40.1,0,60.4,0c-1.9,10.3-3.7,19.9-5.5,29.8c-31.5,0-62.9,0-94.4,0
		c10.4-55.9,20.7-111.6,31-167.5c31.4,0,62.5,0,94.3,0C756.8,14.6,755,24.3,753.3,34.2z"/>
	<path class="st2" d="M579.7,172.1c-11.5,0-22.5,0-34,0c8.5-46,17-91.7,25.6-137.8c-12.1,0-23.9,0-36.3,0
		c1.8-10.1,3.6-19.8,5.4-29.7c35.3,0,70.4,0,106.3,0c-1.7,9.8-3.5,19.5-5.2,29.5c-12.1,0-23.9,0-36.1,0
		C596.8,80.1,588.3,125.9,579.7,172.1z"/>
	<path class="st3" d="M186.1,213.8c-11.6,1.8-23.2,3.6-35.9,5.5c0-3.2,0-5.1,0-7c0-41.3-0.1-82.6,0.1-123.9c0-3.8,0.9-7.9,2.5-11.4
		c10.1-22.5,20.5-44.8,30.7-67.2c0.7-1.6,1-3.4,1.5-5.5c-0.2,0,0.6,0,1.5,0c0.1,0.5,0.2,0.9,0.1,1.4c-0.2,1.9-0.6,3.9-0.6,5.8
		c0,65.3,0,130.6,0,195.9c0,2.2-0.1,4.3-0.2,6.5C185.9,214,186.1,213.8,186.1,213.8z"/>
	<path class="st2" d="M326.9,4.5c11.7,0,22.5,0,34,0c-10.4,56-20.7,111.7-31,167.6c-11.2,0-22.3,0-34,0
		C306.2,116.1,316.6,60.3,326.9,4.5z"/>
	<path class="st4" d="M972.9,235.4c-1.8,15.9-14.7,30.4-35.2,31.4c-15.8,0.8-28.3-10.2-25.7-29.5c2.7-19.6,24.8-34.4,43.8-29
		c8.6,2.4,14.4,7.9,16.7,17.7c-4.2,0-7.9,0.1-11.6-0.1c-0.9-0.1-1.9-1.1-2.6-1.9c-5.1-6.1-10.6-7.9-18.1-5.8
		c-9.9,2.9-17.4,13.3-16.8,23.5c0.5,9,6.5,14.6,15.7,14.5c8.2,0,14.1-3.9,18.9-11.5c-7.4,0-13.9,0-21.3,0c0.6-3.5,1.1-6.3,1.7-9.4
		C949.8,235.4,961.2,235.4,972.9,235.4z"/>
	<path class="st4" d="M1159,265.3c-10.3,0.8-10.3,0.8-14.4-7.7c-4.6-9.6-9.2-19.2-13.8-28.7c-0.1-0.2-0.5-0.3-1.3-0.9
		c-2.3,12.6-4.5,24.9-6.8,37.4c-3.6,0-7,0-11.2,0c3.5-19.1,7-37.9,10.4-56.5c0.9-0.3,1.2-0.4,1.5-0.4c8.8-0.5,8.8-0.5,12.5,7.4
		c4.7,9.9,9.4,19.8,14.1,29.7c0.1,0.3,0.5,0.4,1.2,1.1c2.3-12.8,4.6-25.3,6.9-37.9c3.8,0,7.2,0,11.2,0
		C1165.9,227.6,1162.5,246.4,1159,265.3z"/>
	<path class="st4" d="M485.6,231.8c-0.2,21.2-21.7,38.6-42.4,34.4c-10.8-2.2-18.2-10.8-18.8-22.2c-1.2-21.8,21.3-40.9,42.7-36
		C478.7,210.6,485.7,219.6,485.6,231.8z M451.5,256.4c10.9,0,20.7-9.1,22-20.6c1.5-13.1-8.6-21.4-21.1-17.3
		c-9,3-16.2,12.9-16.2,22.5C436.3,250.1,442.4,256.3,451.5,256.4z"/>
	<path class="st5" d="M1025.9,242.2c0.1-21.6,22-39,42.8-34.2c11.8,2.7,19,12.6,18.3,25.1c-1,20.1-21.5,36.6-41.3,33.3
		C1033.3,264.3,1025.8,255.2,1025.9,242.2z M1075.1,233.5c0.1-11.4-8.6-18.1-19.6-15.4c-9.3,2.3-16.7,11-17.6,20.7
		c-1.1,11.5,6.4,18.8,17.9,17.5C1065.9,255.1,1075,244.3,1075.1,233.5z"/>
	<path class="st5" d="M395.2,207.2c16.7,0.1,27.5,13.3,24.3,29.7c-3.6,18.6-22.1,32.5-39.6,29.6c-15-2.4-23.3-14.1-20.7-29.2
		C362.2,220.2,377.8,207.1,395.2,207.2z M408.1,233.5c0.1-11.4-8.6-18.2-19.6-15.4c-9,2.2-15.9,10-17.4,19.7
		c-1.8,11.4,5.3,19.3,16.7,18.6C398.4,255.7,408,244.9,408.1,233.5z"/>
	<path class="st4" d="M1169.6,265.6c3.6-19.4,7-38.1,10.4-56.6c9,0,17.9-0.7,26.5,0.2c10.3,1,16.9,8.8,17.3,19.3
		c0.7,17.4-9.5,37.8-34.9,37.2C1182.7,265.4,1176.5,265.6,1169.6,265.6z M1190,218.4c-2.3,12.3-4.5,24.4-6.8,36.4
		c16.6,3,27.1-4.5,28.6-20.2c1-10.4-4.1-16.1-14.6-16.2C1195.1,218.4,1193,218.4,1190,218.4z"/>
	<path class="st6" d="M1008.4,244.8c2.9,7.1,5.6,13.6,8.5,20.8c-3.7,0-6.9,0.2-10-0.1c-1.1-0.1-2.6-1.3-3-2.4
		c-3.2-7.7-6.2-15.4-9.4-23.6c3-0.4,5.7-0.8,8.4-1.2c4.9-0.7,7.6-3.9,9-8.3c1.9-6-0.7-10.1-6.9-11.3c-1-0.2-2-0.3-3-0.3
		c-6.7-0.3-6.6-0.3-7.8,6.3c-2.4,13.4-5,26.8-7.5,40.5c-3.8,0-7.6,0-11.7,0c3.4-18.2,6.7-36.3,10.2-54.4c0.2-1,1.9-2.4,2.9-2.4
		c7.8,0,15.7-0.1,23.4,0.6c8.6,0.8,13,6.4,12.6,15C1023.6,234.2,1018.6,241.2,1008.4,244.8z"/>
	<path class="st5" d="M608.8,244.7c1.6,3.9,2.9,7.3,4.3,10.7c1.3,3.2,2.6,6.3,4.2,10.2c-3.9,0-7.2,0.2-10.4-0.1
		c-1-0.1-2.3-1.2-2.7-2.2c-3.2-7.8-6.2-15.7-9.4-23.8c2.9-0.4,5.5-0.8,8.1-1.1c4.9-0.6,7.6-3.7,9.2-8c2.1-5.9-0.3-10.2-6.3-11.5
		c-0.6-0.1-1.3-0.3-2-0.4c-7.8-0.9-8.2-0.6-9.6,7.1c-2.4,13.2-4.8,26.5-7.2,39.7c-4,0-7.6,0-11.7,0c3.5-19.1,7-37.8,10.6-57.5
		c9.6,0.5,19,0.4,28.3,1.6c8.3,1.2,12.2,10.3,9.4,19.9C621.6,237,616.9,242.2,608.8,244.7z"/>
	<path class="st5" d="M1391.9,245c2.7,6.6,5.4,13.1,8.4,20.5c-3.7,0-7.1,0.1-10.5-0.1c-0.9-0.1-2.1-1-2.5-1.9
		c-3.2-7.9-6.3-16-9.5-24.1c2.9-0.4,5.3-0.8,7.8-1c5.4-0.5,8.2-3.9,9.7-8.7c1.8-5.5-0.5-9.5-6.1-10.8c-1-0.2-2-0.4-2.9-0.5
		c-7.5-0.6-7.4-0.5-8.8,6.8c-2.5,13.4-4.9,26.7-7.4,40.2c-3.8,0-7.3,0-11.6,0c3.5-19.1,7-38,10.3-56.4c9.3,0,18.1-0.5,26.8,0.1
		c7.4,0.5,11.1,5.2,11.7,12.6C1408.2,232.3,1403.6,239.2,1391.9,245z"/>
	<path class="st7" d="M351.8,246.6c-6.2,17.1-30.7,25.9-45.4,16.4c-7.6-4.9-10.8-12.3-10.6-21.3c0.4-21.4,22.9-38.9,43.3-33.5
		c9.2,2.4,15.3,9.5,16.5,19.9c-3.6,0-7.2,0.1-10.7-0.1c-0.8-0.1-1.6-1.4-2.1-2.3c-4.2-7.1-10.3-9.6-18.2-7.4
		c-9.9,2.7-17.5,13.2-17,23.3c0.6,12.1,11.9,18.6,23,13.2c1.6-0.8,3.6-1.6,4.5-3C339.3,245.5,345.3,245.9,351.8,246.6z"/>
	<path class="st4" d="M1236.4,208.6c4.1,0,7.7,0,11.7,0c-2.1,11.8-4.2,23.2-6.3,34.7c-0.1,0.8-0.3,1.6-0.5,2.5
		c-0.8,5.7,0.7,9.2,4.5,10.4c4.8,1.4,10.2-0.7,12-5.6c1.8-5.1,2.8-10.6,3.9-15.9c1.5-7.3,3-14.7,4-22.1c0.5-3.5,1.9-4.5,5.1-4.2
		c2.3,0.2,4.6,0,7.6,0c-2.9,14.5-5.1,28.7-8.7,42.4c-3.3,12.5-17.8,19.1-30.1,15.1c-7.9-2.6-11.7-8.9-10.3-18.1
		c1.5-9.7,3.4-19.3,5.2-29C1235.1,215.4,1235.8,212.1,1236.4,208.6z"/>
	<path class="st5" d="M851.5,265.6c11.1-18.9,21.8-37.1,32.5-55.2c2.4-4,6.4-1.6,9.6-1.8c0.8-0.1,2.4,2.6,2.7,4.2
		c3.8,17.3,7.4,34.7,11.1,52.5c-4.3,0-8.2,0-12.7,0c-0.5-2.3-1.2-4.8-1.4-7.4c-0.3-2.5-1.4-3.5-3.9-3.3c-2.8,0.2-5.7,0.4-8.5,0
		c-7.3-1-12.9,0.6-15.4,8.5c-0.4,1.2-2.6,2.3-4.1,2.5C858.5,265.8,855.5,265.6,851.5,265.6z M887.7,223.8c-0.4-0.1-0.7-0.1-1.1-0.2
		c-3.7,7-7.4,14-11.3,21.4c5.8,0,10.7,0,15.9,0C890,237.7,888.8,230.7,887.7,223.8z"/>
	<path class="st5" d="M675.3,265.3c-4.4,0-8.3,0-12.2,0c-0.3-0.3-0.6-0.5-0.7-0.7c-2.1-10.1-2.1-10.1-12.2-10.1c-1,0-2,0.1-3,0
		c-6.6-1.1-11.2,1-13.2,7.7c-0.8,2.8-2.9,3.7-5.8,3.4c-2.6-0.2-5.2-0.1-8.8-0.1c4.7-8,8.9-15.2,13.1-22.4c6.1-10.3,12.5-20.4,18-31
		c2.7-5.2,6.8-4,10.6-3.6c1.3,0.2,2.7,3.5,3.2,5.5C668,231,671.6,248,675.3,265.3z M655.3,223.9c-0.3-0.1-0.6-0.2-0.9-0.3
		c-3.7,7-7.5,14-11.2,21.1c5.7,0,10.7,0,15.9,0C657.8,237.5,656.5,230.7,655.3,223.9z"/>
	<path class="st5" d="M1480.4,265.4c-4.4,0-8.2,0-12.5,0c-0.8-3.4-1.5-6.9-2.4-10.8c-6.8,0-13.4-0.1-20,0.1
		c-1.3,0.1-3.1,1.5-3.5,2.7c-2.8,8.6-9,9.4-17,7.6c1.7-3,3.4-5.9,5.1-8.8c8.5-14.5,17-29,25.5-43.5c2.3-3.9,7.9-5.9,11.7-4.2
		c0.7,0.3,1.5,1.4,1.7,2.2C1472.8,228.6,1476.5,246.7,1480.4,265.4z M1464.2,245c-1.3-7.4-2.4-14.4-3.6-21.3c-0.3-0.1-0.7-0.1-1-0.2
		c-3.7,7-7.5,14-11.5,21.5C1453.8,245,1458.7,245,1464.2,245z"/>
	<path class="st5" d="M818.2,208.8c3.9,18.5,7.9,37.3,11.9,56.4c-4.3,0-8.3,0-12.4,0c-1-3.5-1-8.5-3.3-10c-2.7-1.8-7.3-0.6-11.1-0.7
		c-0.8,0-1.7,0.1-2.5,0c-6.1-1.3-9.7,1.3-11.6,7c-1.1,3.3-3.4,4.6-6.9,4.1c-2.4-0.3-4.9-0.1-8.1-0.1c6.3-10.7,12.1-20.8,17.9-30.7
		c3.8-6.5,8.3-12.6,11.3-19.4C806.5,208.6,811.1,207,818.2,208.8z M810,222.3c-4.4,8.3-8.1,15.4-12,22.7c5.7,0,10.6,0,16,0
		C812.7,237.6,811.5,230.7,810,222.3z"/>
	<path class="st4" d="M1278.4,248c3.9,0,7.3,0,11,0c0.1,0.9,0.3,1.7,0.4,2.5c0.3,3.9,2.3,6.3,6.3,6.4c4.2,0,7.3-2.2,8.8-6.2
		c1.4-3.9-0.7-6.3-4.2-7.8c-2.3-1-4.6-2-6.9-2.9c-11.1-4.6-13.9-14.2-6.7-23.7c5.6-7.3,13.5-10.1,22.6-8.6c8.4,1.4,12,7,11,16.2
		c-3.5,0-7.1,0-9.6,0c-2.5-2.6-4.2-5.9-6.5-6.3c-2.3-0.5-5.8,1.3-7.7,3.1c-3,2.9-2.2,6,1.5,8.2c2.6,1.5,5.3,2.7,8,4
		c12.9,6.1,14.6,19.7,3.5,28.8c-6.8,5.5-14.7,6.9-23,4.1C1279.6,263.2,1277.1,257.9,1278.4,248z"/>
	<path class="st4" d="M498.1,208.9c9.1,0,17.4-0.5,25.6,0.1c8.4,0.7,13,7.1,12.3,15.6c-0.9,11.2-8.6,19.4-19.9,21
		c-1.5,0.2-3,0.4-4.5,0.5c-9,0.5-9,0.5-10.5,9.7c-0.5,3.1-1.1,6.2-1.8,9.5c-3.8,0-7.4,0-11.7,0C491.2,246.3,494.7,227.5,498.1,208.9
		z M504.6,236.5c5.5-0.8,9.9-1,14-2.2c4.5-1.4,6.1-5.4,5.7-9.9c-0.4-4.7-4.3-5.4-8-5.9c-2.6-0.3-5.3-0.1-8.3-0.1
		C507,224,505.9,229.5,504.6,236.5z"/>
	<path class="st4" d="M545.1,208.3c10.1,0,19.6,0,29.1,0c0.8,0,1.6,0,3.1,0c-0.6,3.5-1.2,6.7-1.8,10c-6.8,0-13.2,0-20.2,0
		c-0.8,4.2-1.6,8.1-2.5,12.7c6.6,0,12.9,0,19.8,0c-0.6,3.8-1.1,6.9-1.6,10.7c-5.3,0-10.4,0.2-15.5-0.1c-3.5-0.2-5.2,0.8-5.4,4.5
		c-0.2,2.9-1.1,5.8-1.8,9.2c6.9,0,13.3,0,20.4,0c-0.6,3.6-1.1,6.6-1.6,9.9c-10.6,0-21,0-32.2,0C538.1,246.3,541.5,227.5,545.1,208.3
		z"/>
	<path class="st4" d="M751.6,265.6c-3.3-19.2-6.4-37.8-9.7-56.9c4,0,7.7,0,12,0c2,13.6,4,27.5,6.2,42.7c6-11.7,11.4-22.1,16.8-32.5
		c0.4-0.7,0.7-1.5,1.1-2.2c4.7-9.3,4.7-9.3,16.2-7.9c-3.8,7.2-7.5,14.2-11.2,21.1c-5.5,10.2-11.4,20.3-16.5,30.7
		c-2,4.1-4.4,5.7-8.8,5.1C755.9,265.3,754,265.6,751.6,265.6z"/>
	<path class="st4" d="M1337.5,218.3c-4.7,0-8.3,0-12.2,0c0.7-3.4,1.3-6.5,1.9-9.7c11.9,0,23.7,0,36,0c-0.5,3.2-1,6.3-1.5,9.7
		c-4.1,0-8,0-12.3,0c-3,15.9-5.9,31.3-8.8,47c-3.8,0-7.4,0-11.6,0C1331.8,249.8,1334.6,234.3,1337.5,218.3z"/>
	<path class="st4" d="M681.9,208.5c12.4,0,24.2,0,36.3,0c-0.7,3.4-1.3,6.4-2,9.8c-4,0-7.7,0-12.1,0c-2.9,15.8-5.9,31.4-8.8,47
		c-3.9,0-7.5,0-11.6,0c2.9-15.6,5.7-30.9,8.6-46.7c-4.1,0-7.8,0-12.3,0C680.7,214.9,681.3,211.8,681.9,208.5z"/>
	<path class="st7" d="M1507.3,208.3c-2.9,16-5.7,31.3-8.7,47.2c6.5,0,12.4,0,18.6,0c-0.5,3-0.6,5.5-1.3,7.9
		c-0.3,0.9-1.7,2.1-2.7,2.1c-9.3,0.2-18.5,0.1-28.2,0.1c3.4-18.5,6.7-36.5,10.2-54.3c0.2-1.2,2.2-2.6,3.5-2.8
		C1501.2,207.9,1503.9,208.3,1507.3,208.3z"/>
	<path class="st4" d="M1418.8,265.3c-4.1,0-7.7,0-11.7,0c3.5-19,7-37.7,10.5-56.7c3.8,0,7.5,0,11.7,0
		C1425.8,227.6,1422.3,246.3,1418.8,265.3z"/>
	<path class="st6" d="M1111.5,208.6c-3.5,19.1-7,37.9-10.5,56.7c-3.9,0-7.5,0-11.7,0c3.5-19,6.9-37.7,10.4-56.7
		C1103.5,208.6,1107.1,208.6,1111.5,208.6z"/>
	<path class="st4" d="M723.9,208.5c4,0,7.4,0,11.7,0c-3.5,19.2-7,38-10.4,56.9c-3.9,0-7.4,0-11.7,0
		C717,246.2,720.5,227.4,723.9,208.5z"/>
	<g>
		<path class="st1" d="M185.9,214c0,0,0.1-0.1,0.1-0.1c0,0,0,0,0-0.1L185.9,214z"/>
		<path class="st1" d="M252.4,55.4c-10.7-23.1-27.2-40-52.1-47.6c-0.7,0.5-1.5,1-2.2,1.4c23.2,7.5,37,23.9,44.1,46.6
			c0.2,0.4,0.4,0.9,0.6,1.3c0.1,0.6,0.3,1.1,0.4,1.7c0.3,1.1,0.6,2.2,0.9,3.3c0.7,3.8,1.5,7.6,2.2,11.4c0.2,0.5,0.4,1.1,0.5,1.6
			c0.1,2.8,0.2,5.6,0.4,8.5c0,4.4,0,8.8,0,13.1c-0.1,1.8-0.1,3.6-0.2,5.4c0,0.3,0,0.6,0,1c0,0.7-0.1,1.4-0.1,2.1
			c-0.2,0.8-0.4,1.7-0.6,2.5c-0.7,4.1-1.4,8.3-2.1,12.4c-0.3,1.2-0.6,2.4-0.9,3.6l0,0.4c-0.3,1.2-0.7,2.3-1,3.5
			c-0.1,0.8-0.1,1.7-0.3,2.5c-5.9,19.4-14.7,37.3-26.8,53.5c-8.4,11.3-17.4,22-29,30.2c-0.4,0.5-0.8,1-1.3,1.4
			c-20.3,16.3-43.5,25.9-69.4,28.8c-8.4,0.9-17,1-25.5,1.4c28.1,5.9,54.7,0.5,80.1-11.8c15.8-7.6,29.9-17.9,42.9-29.7
			c13-12.8,23.7-27.2,32.2-43.3c1.7-3.2,3.3-6.4,5-9.6c2.2-6.6,4.5-13.2,6.5-19.8C264.4,105.5,263.8,80,252.4,55.4z"/>
		<path class="st1" d="M246.7,162.6c-0.2,0-0.6,0.2-0.7,0.4c-4.3,7.1-8.5,14.1-12.8,21.2c-6.3,7.1-12.6,14.2-18.9,21.3
			C179.6,239.2,138.9,257.7,90,253c-28.8-2.7-51.4-17.1-65.5-42.6c-11.3-20.6-12.2-43-7.7-65.6c9.3-47,34.4-83.7,73.8-110.8
			c5.7-3.9,11.6-7.5,17.5-11.2c-2.4-0.1-4.2,0.7-6,1.7C71.1,42,45.9,65.5,27.2,95.7C9.1,124.9-1.6,156.4,2.1,191.4
			c2.6,24.4,12.9,45,32.8,59.9c22,16.4,47.2,19.7,73.6,16.4c26.2-3.3,50-13.5,71.8-28.2c21.3-14.4,39.7-31.8,53.7-53.6v0
			c4.4-7.6,8.9-15.2,13.3-22.7C247.1,163,247,162.7,246.7,162.6z"/>
	</g>
	<path class="st4" d="M200.3,7.8c-0.7,0.5-1.5,1-2.2,1.4c-2-1-4-2-6-3L192,6C194.8,6.6,197.5,7.2,200.3,7.8z"/>
</g>
</svg>
