<svg width="350" height="250" viewBox="0 0 350 250" fill="none" xmlns="http://www.w3.org/2000/svg">
<g clip-path="url(#clip0_1003_507)">
<path d="M69.8279 225.246C76.1805 233.784 89.3776 234.688 89.3776 234.688C89.3776 234.688 92.2671 221.742 85.9144 213.204C79.5618 204.666 66.3852 203.762 66.3852 203.762C66.3852 203.762 63.465 216.708 69.8279 225.246Z" fill="#74BF3B"/>
<path d="M102.247 228.451C98.0459 234.092 89.3367 234.688 89.3367 234.688C89.3367 234.688 87.4309 226.14 91.6318 220.509C95.8328 214.879 104.532 214.283 104.532 214.283C104.532 214.283 106.407 222.821 102.247 228.451Z" fill="#74BF3B"/>
<path d="M337.336 52.5022L339.887 53.7762C339.887 53.7762 353.699 88.5243 349.027 96.8362C344.354 105.148 329.713 120.704 329.713 120.704L326.946 112.823L338.217 88.2468L337.336 52.5022Z" fill="#575A89"/>
<path opacity="0.1" d="M337.336 52.5022L339.887 53.7762C339.887 53.7762 353.699 88.5243 349.027 96.8362C344.354 105.148 329.713 120.704 329.713 120.704L326.946 112.823L338.217 88.2468L337.336 52.5022Z" fill="black"/>
<path d="M334.569 226.211C334.569 226.211 338.186 234.534 336.27 235.171C334.119 235.719 331.897 235.933 329.682 235.808C327.346 235.808 324.559 234.955 324.159 234.102C323.759 233.249 325.86 227.711 325.86 227.711L334.569 226.211Z" fill="#575A89"/>
<path d="M285.89 230.475C285.89 230.475 288.236 237.945 287.17 238.366C286.105 238.787 282.703 240.709 280.797 240.072C278.83 239.418 276.966 238.484 275.264 237.298C274.629 236.661 275.264 233.249 275.264 233.249L278.246 228.986L285.89 230.475Z" fill="#575A89"/>
<path d="M327.766 119.615L330.84 120.642C330.84 120.642 331.618 127.896 330.768 130.454C329.917 133.012 328.001 151.547 329.067 155.39C330.133 159.233 329.487 165.408 329.487 165.408C329.487 165.408 335.87 186.296 334.61 190.775C333.35 195.255 333.586 201.645 334.825 204.841C336.065 208.036 337.161 209.32 336.526 211.879C335.891 214.437 334.61 215.711 335.891 217.838C337.172 219.965 339.713 220.612 338.442 222.533C337.172 224.455 335.891 225.944 336.311 227.218C336.731 228.492 325.04 230.845 324.016 228.924C324.016 228.924 327.417 225.944 324.016 224.239C320.614 222.533 321.679 216.132 321.679 216.132C321.679 216.132 315.726 191.628 315.942 189.707C316.157 187.785 306.587 157.948 306.587 157.948C306.587 157.948 292.56 200.577 291.709 202.498C290.859 204.42 292.734 209.105 291.709 210.379C290.685 211.653 292.129 214.858 290.685 216.132C289.24 217.406 293.236 222.102 290.685 223.807C288.133 225.513 286.853 230.845 287.068 231.914C287.283 232.982 276.443 231.698 276.443 230.208C276.614 228.387 276.321 226.553 275.592 224.876C274.567 222.318 273.891 220.612 274.742 219.739C275.592 218.865 276.227 217.817 275.377 214.838C274.526 211.858 276.658 202.683 276.012 200.978C275.367 199.272 275.592 187.765 275.592 187.765C275.592 187.765 277.713 170.925 277.078 168.161C276.645 166.686 276.721 165.108 277.293 163.682C277.508 162.654 278.779 151.106 279.629 149.4C280.48 147.695 281.545 118.495 286.433 117.005C291.32 115.515 327.766 119.615 327.766 119.615Z" fill="#2F2E41"/>
<path d="M329.467 233.887C329.467 233.887 337.12 232.612 337.551 233.887C337.981 235.161 339.252 245.188 336.27 245.404C333.288 245.62 328.196 246.257 327.346 244.377C326.495 242.496 322.458 241.181 322.458 241.181C322.458 241.181 316.505 239.476 316.505 237.554C316.505 235.633 316.72 232.654 317.776 232.417C318.831 232.181 323.093 229.859 323.093 229.006C323.093 228.153 329.467 233.887 329.467 233.887Z" fill="#2F2E41"/>
<path d="M281.648 237.298C281.648 237.298 287.17 235.592 288.441 236.661C289.711 237.729 291.422 249.452 288.441 249.236C285.459 249.021 277.6 250.264 277.17 248.599C276.74 246.935 271.022 246.462 271.022 246.462C271.022 246.462 264.875 243.483 265.284 240.298C265.694 237.113 266.309 236.034 268.901 235.818C271.494 235.602 273.358 232.623 273.574 232.407C273.789 232.191 275.623 230.64 275.899 232.407C276.176 234.174 278.881 237.945 281.648 237.298Z" fill="#2F2E41"/>
<path d="M299.076 30.7513C306.235 30.7513 312.038 24.9323 312.038 17.7542C312.038 10.5761 306.235 4.75708 299.076 4.75708C291.918 4.75708 286.115 10.5761 286.115 17.7542C286.115 24.9323 291.918 30.7513 299.076 30.7513Z" fill="#A0616A"/>
<path d="M310.337 20.7439C310.337 20.7439 311.187 35.015 314.374 36.2993C317.561 37.5836 298.226 37.5734 298.226 37.5734C298.226 37.5734 298.011 28.6244 295.244 26.4976C292.478 24.3708 310.337 20.7439 310.337 20.7439Z" fill="#A0616A"/>
<path d="M315.44 33.1042C315.44 33.1042 302.263 28.2033 297.591 35.868C297.591 35.868 282.703 42.9059 281.648 47.1698C280.592 51.4337 290.572 83.4076 290.572 83.4076C290.572 83.4076 290.572 109.833 288.441 112.607C286.31 115.382 282.293 118.361 285.049 118.998C287.806 119.635 331.157 124.331 330.963 121.556C330.768 118.782 327.981 116.419 330.963 114.734C333.944 113.049 331.383 111.118 333.299 105.57C335.215 100.021 339.887 54.1975 339.887 54.1975C339.887 54.1975 336.7 48.4336 336.065 47.7966C335.43 47.1596 315.44 33.1042 315.44 33.1042Z" fill="#575A89"/>
<path d="M277.395 126.457C277.395 126.457 269.106 145.218 276.371 147.777C283.635 150.335 283.174 127.957 283.174 127.957L277.395 126.457Z" fill="#A0616A"/>
<path d="M305.296 20.1686C304.538 18.6583 303.421 16.9219 301.74 17.0144C300.899 17.1669 300.099 17.4961 299.394 17.9802C299.039 18.2157 298.628 18.3521 298.203 18.3756C297.778 18.3991 297.354 18.3087 296.976 18.1138C295.951 17.3843 296.279 15.6684 295.367 14.8054C294.455 13.9423 292.396 14.3944 291.75 13.1923C291.412 12.5553 291.689 11.7539 291.535 11.045C290.497 11.1328 289.452 11.0105 288.461 10.6854C288.043 10.5697 287.666 10.3397 287.371 10.021C287.076 9.70236 286.875 9.30767 286.791 8.88112C286.707 8.45458 286.743 8.01301 286.895 7.60583C287.047 7.19865 287.309 6.84194 287.652 6.57561C288.963 5.38378 290.849 5.14746 292.457 4.42825C293.748 3.85289 294.855 2.95901 296.125 2.37337C298.347 1.38616 300.791 1.01025 303.206 1.28429C306.905 1.44358 310.437 2.86862 313.216 5.32213C315.87 7.85991 317.315 11.8669 316.126 15.3602C315.48 17.3432 314.077 19.0076 313.339 20.9495C312.865 22.2795 312.539 23.6577 312.366 25.0592L311.833 28.3676C311.915 27.8539 310.808 26.5696 310.419 26.3127C309.609 25.6346 308.431 25.8607 307.683 25.2853C306.587 24.1654 305.941 21.4838 305.296 20.1686Z" fill="#2F2E41"/>
<path opacity="0.1" d="M286.535 45.6389L283.133 47.7657C283.133 47.7657 277.6 81.2294 278.246 85.9248C278.891 90.6202 275.695 117.046 276.75 119.173C277.805 121.3 278.246 121.731 278.246 123.015C278.246 124.3 275.264 128.975 277.221 129.827C279.178 130.68 286.146 132.18 286.146 129.827C286.146 127.474 284.875 124.289 287.17 122.8C289.465 121.31 291.207 111.714 291.207 111.714C291.207 111.714 292.232 101.912 293.339 99.9905C294.445 98.0692 295.89 91.0415 295.89 88.0516C295.89 85.0618 298.431 72.9174 296.914 66.7425C295.398 60.5676 295.039 43.9744 286.535 45.6389Z" fill="black"/>
<path d="M285.049 45.0431L281.648 47.1699C281.648 47.1699 276.115 80.6336 276.75 85.3187C277.385 90.0038 274.199 116.44 275.264 118.577C276.33 120.714 276.75 121.135 276.75 122.409C276.75 123.683 273.779 128.379 275.725 129.231C277.672 130.084 284.65 131.574 284.65 129.231C284.65 126.889 283.379 123.694 285.674 122.204C287.969 120.714 289.752 111.118 289.752 111.118C289.752 111.118 290.777 101.306 291.873 99.3946C292.97 97.4836 294.425 90.4354 294.425 87.4558C294.425 84.4762 296.925 72.3524 295.459 66.1878C293.994 60.0231 293.543 43.3375 285.049 45.0431Z" fill="#575A89"/>
<path d="M250.284 0H0V125.913H250.284V0Z" fill="white"/>
<path d="M238.788 10.2437H11.4962V115.669H238.788V10.2437Z" fill="#106FB5"/>
<path d="M15.9431 18.8022L15.3386 19.3982L45.862 50.0056L55.4422 40.4093L72.2562 57.2593L92.9023 36.5667L128.016 71.7771L143.969 55.7695L178.878 90.7641L198.459 71.1298L234.341 107.111L234.935 106.505L198.459 69.9277L178.878 89.562L143.969 54.5572L128.016 70.5647L92.9023 35.3543L72.2562 56.0572L55.4422 39.1969L45.862 48.8035L15.9431 18.8022Z" fill="#EB721F"/>
<path d="M94.388 41.7243C97.2118 41.7243 99.5009 39.4289 99.5009 36.5974C99.5009 33.7659 97.2118 31.4705 94.388 31.4705C91.5643 31.4705 89.2751 33.7659 89.2751 36.5974C89.2751 39.4289 91.5643 41.7243 94.388 41.7243Z" fill="#EB721F"/>
<path d="M127.166 75.445C129.989 75.445 132.278 73.1496 132.278 70.3181C132.278 67.4866 129.989 65.1912 127.166 65.1912C124.342 65.1912 122.053 67.4866 122.053 70.3181C122.053 73.1496 124.342 75.445 127.166 75.445Z" fill="#EB721F"/>
<path d="M198.244 75.445C201.067 75.445 203.356 73.1496 203.356 70.3181C203.356 67.4866 201.067 65.1912 198.244 65.1912C195.42 65.1912 193.131 67.4866 193.131 70.3181C193.131 73.1496 195.42 75.445 198.244 75.445Z" fill="#EB721F"/>
</g>
<defs>
<clipPath id="clip0_1003_507">
<rect width="350" height="249.493" fill="white"/>
</clipPath>
</defs>
</svg>
