<svg width="350" height="265" viewBox="0 0 350 265" fill="none" xmlns="http://www.w3.org/2000/svg">
<path d="M308.646 259.951C303.954 257.933 302.874 250.565 306.816 247.269C310.758 243.972 317.821 246.377 318.958 251.363L314.583 220.016C313.574 212.813 312.764 204.765 317.117 198.899C321.199 193.432 329.165 191.684 335.559 194.031C341.952 196.377 346.68 202.243 348.686 208.754C350.692 215.265 350.223 222.351 348.475 228.932C346.518 235.466 343.925 241.792 340.732 247.82C337.647 254.073 333.916 260.866 327.323 263.177C321.023 265.406 308.646 259.951 308.646 259.951Z" fill="#E3F2D9"/>
<path d="M329.224 193.479C332.11 202.462 333.481 211.862 333.283 221.295C333.106 230.689 331.419 239.994 328.285 248.852C326.502 253.876 324.248 258.719 321.551 263.317C321.491 263.426 321.454 263.545 321.44 263.668C321.427 263.792 321.438 263.916 321.473 264.035C321.507 264.154 321.566 264.265 321.643 264.361C321.721 264.457 321.818 264.537 321.927 264.596C322.137 264.712 322.384 264.743 322.617 264.685C322.849 264.626 323.051 264.481 323.182 264.279C328.032 255.989 331.48 246.956 333.388 237.543C335.325 228.084 335.722 218.374 334.562 208.789C333.89 203.418 332.712 198.123 331.042 192.975C330.678 191.813 328.848 192.306 329.224 193.479Z" fill="#74BF3A"/>
<path d="M305.854 248.418L320.859 264.174C321.704 265.065 323.041 263.728 322.196 262.836L307.203 247.081C306.359 246.154 305.021 247.538 305.854 248.418Z" fill="#74BF3A"/>
<path d="M293.114 188.904C292.58 188.904 292.064 188.713 291.659 188.364C282.399 182.336 274.158 174.871 267.246 166.25C266.821 165.849 266.571 165.298 266.549 164.714C266.527 164.13 266.735 163.562 267.128 163.13L271.668 158.109L272.607 158.953L268.055 164.033C267.883 164.225 267.794 164.477 267.807 164.734C267.82 164.991 267.935 165.233 268.126 165.406L268.196 165.476C275.058 173.999 283.231 181.376 292.41 187.332H292.492C292.684 187.504 292.936 187.594 293.193 187.58C293.45 187.567 293.692 187.453 293.865 187.262L302.734 177.466C302.901 177.286 302.994 177.049 302.994 176.803C302.994 176.557 302.901 176.32 302.734 176.14C300.681 174.967 298.675 173.794 296.774 172.515L297.478 171.471C299.378 172.75 301.373 173.958 303.414 175.073L303.531 175.166C303.97 175.562 304.233 176.115 304.264 176.704C304.294 177.294 304.09 177.871 303.696 178.31V178.31L294.756 188.177C294.35 188.605 293.797 188.865 293.208 188.904H293.114Z" fill="#3F3D56"/>
<path d="M283.341 172.409C286.122 174.932 288.984 176.316 289.735 175.495C289.832 175.356 289.892 175.195 289.911 175.027C289.929 174.859 289.905 174.689 289.841 174.533C289.542 173.602 289.059 172.74 288.421 171.999C285.922 170.22 283.514 168.317 281.206 166.297C280.467 166.051 279.904 166.063 279.634 166.368C279.594 166.408 279.562 166.456 279.54 166.508C279.071 167.459 280.678 170.016 283.341 172.409Z" fill="#1170B5"/>
<path d="M266.6 152.102C266.622 152.678 266.871 153.222 267.293 153.616C271.032 158.245 275.144 162.561 279.587 166.52C282.84 169.42 286.281 172.101 289.888 174.545C290.498 174.955 291.061 175.354 291.706 175.718C292.108 176.071 292.626 176.263 293.161 176.258H293.278C293.572 176.242 293.86 176.169 294.126 176.042C294.392 175.915 294.63 175.737 294.827 175.519L303.696 165.734C304.091 165.293 304.295 164.714 304.265 164.123C304.234 163.531 303.97 162.976 303.531 162.579L303.414 162.485C293.733 157.256 285.458 149.766 279.294 140.652L279.2 140.535C278.983 140.337 278.729 140.184 278.453 140.085C278.177 139.985 277.884 139.941 277.591 139.955C277.297 139.97 277.01 140.042 276.744 140.167C276.479 140.293 276.241 140.47 276.044 140.687L267.175 150.483C266.975 150.701 266.822 150.956 266.723 151.234C266.624 151.512 266.582 151.808 266.6 152.102ZM267.856 152.044C267.846 151.79 267.934 151.542 268.102 151.351L276.971 141.556C277.056 141.458 277.16 141.379 277.277 141.324C277.395 141.27 277.522 141.241 277.652 141.239C277.884 141.222 278.114 141.293 278.297 141.438C284.555 150.665 292.935 158.257 302.734 163.576C302.9 163.754 302.993 163.989 302.993 164.233C302.993 164.477 302.9 164.712 302.734 164.89L293.865 174.686C293.781 174.781 293.678 174.859 293.563 174.914C293.448 174.968 293.323 174.998 293.196 175.002C293.068 175.01 292.94 174.992 292.819 174.95C292.698 174.908 292.587 174.842 292.492 174.756H292.41C291.073 173.9 289.747 172.996 288.445 172.058C285.946 170.279 283.538 168.376 281.23 166.356C276.504 162.243 272.15 157.72 268.219 152.841L268.149 152.771C268.054 152.686 267.977 152.584 267.923 152.469C267.868 152.354 267.838 152.229 267.832 152.102L267.856 152.044Z" fill="#3F3D56"/>
<path d="M289.728 162.856C290.471 162.034 288.816 159.324 286.03 156.801C283.245 154.279 280.384 152.9 279.64 153.721C278.896 154.543 280.552 157.253 283.337 159.776C286.123 162.298 288.984 163.677 289.728 162.856Z" fill="#1170B5"/>
<path d="M233.998 256.818H226.255L222.572 226.938H233.998V256.818Z" fill="#FFB8B8"/>
<path d="M235.969 264.315H211.004V263.998C211.004 261.422 212.028 258.951 213.849 257.129C215.671 255.308 218.142 254.284 220.718 254.284H235.969V264.315Z" fill="#2F2E41"/>
<path d="M256.746 256.818H249.003L245.308 226.938H256.746V256.818Z" fill="#FFB8B8"/>
<path d="M258.717 264.315H233.752V263.998C233.755 261.421 234.781 258.95 236.605 257.129C238.428 255.307 240.9 254.284 243.477 254.284H258.729L258.717 264.315Z" fill="#2F2E41"/>
<path d="M163.233 145.052H13.9137C10.2326 145.048 6.70248 143.588 4.09518 140.989C1.48787 138.391 0.0155045 134.866 0 131.185V58.5897C0.00310668 54.9005 1.47 51.3633 4.07865 48.7547C6.6873 46.146 10.2245 44.6791 13.9137 44.676H163.233C166.923 44.6791 170.46 46.146 173.068 48.7547C175.677 51.3633 177.144 54.9005 177.147 58.5897V131.185C177.132 134.866 175.659 138.391 173.052 140.989C170.445 143.588 166.914 145.048 163.233 145.052Z" fill="#106FB5"/>
<path d="M261.908 136.088L260.054 245.814C260.042 246.484 259.765 247.122 259.283 247.588C258.802 248.054 258.155 248.311 257.485 248.301H257.297L248.24 247.48C247.634 247.432 247.065 247.169 246.635 246.739C246.205 246.309 245.942 245.74 245.894 245.134L240.674 176.703C240.653 176.552 240.578 176.412 240.462 176.312C240.347 176.211 240.199 176.156 240.046 176.156C239.893 176.156 239.745 176.211 239.63 176.312C239.514 176.412 239.439 176.552 239.418 176.703L236.767 246.706C236.74 247.36 236.461 247.979 235.989 248.434C235.517 248.888 234.888 249.143 234.233 249.146H224.519C223.88 249.145 223.266 248.902 222.798 248.467C222.33 248.032 222.044 247.436 221.997 246.799L215.193 135.467L255.62 125.319L261.908 136.088Z" fill="#2F2E41"/>
<path d="M232.614 33.0615C241.179 33.0615 248.123 26.1179 248.123 17.5524C248.123 8.9869 241.179 2.04321 232.614 2.04321C224.049 2.04321 217.105 8.9869 217.105 17.5524C217.105 26.1179 224.049 33.0615 232.614 33.0615Z" fill="#FFB8B8"/>
<path d="M213.808 139.397C213.54 139.136 213.326 138.824 213.179 138.48C213.032 138.135 212.955 137.765 212.952 137.391L211.896 62.5784C211.833 58.7707 212.979 55.0411 215.169 51.9256C217.36 48.8101 220.481 46.4691 224.085 45.2391C225.54 38.646 233.271 37.813 237.776 37.9186C238.902 37.9447 240.005 38.2406 240.994 38.7816C241.982 39.3225 242.825 40.0927 243.454 41.0275L246.68 45.8726L253.813 50.0491C257.109 51.9774 259.708 54.9018 261.237 58.4013C262.765 61.9008 263.144 65.7951 262.318 69.5235L261.227 74.5094C257.361 92.1723 257.727 110.499 262.295 127.994L264.5 136.405C264.603 136.77 264.632 137.151 264.585 137.527C264.538 137.902 264.416 138.265 264.227 138.593C264.038 138.92 263.785 139.207 263.483 139.436C263.182 139.665 262.838 139.831 262.471 139.925C262.165 140.005 261.848 140.033 261.532 140.007L258.975 139.807C258.309 139.758 257.682 139.476 257.203 139.011C256.725 138.545 256.426 137.926 256.359 137.262L255.936 133.015C255.936 132.931 255.903 132.85 255.844 132.791C255.784 132.731 255.704 132.698 255.62 132.698C255.536 132.698 255.455 132.731 255.396 132.791C255.336 132.85 255.303 132.931 255.303 133.015L254.869 137.051C254.805 137.746 254.485 138.392 253.971 138.865C253.457 139.337 252.786 139.602 252.088 139.608L215.814 140.171C215.07 140.186 214.35 139.908 213.808 139.397Z" fill="#3F3D56"/>
<path d="M233.822 26.4918C233.893 28.6856 235.418 29.9526 237.283 31.1023C239.217 32.1497 241.309 32.8711 243.477 33.2375C243.921 33.4701 244.439 33.518 244.918 33.3708C245.397 33.2236 245.798 32.8932 246.035 32.4515C246.184 32.1823 246.261 31.8792 246.258 31.5716L248.229 24.1103C248.921 21.7206 249.427 19.281 249.742 16.8133C250.211 12.1206 249.085 6.97045 245.777 3.54482C242.469 0.119197 236.72 -1.14781 232.755 1.53872C228.062 -4.47959 206.523 8.81231 211.837 12.9888C212.776 13.7396 214.184 12.7893 215.416 12.7072C216.01 12.6082 216.62 12.6511 217.195 12.8326C217.77 13.014 218.294 13.3288 218.724 13.7513C219.721 14.9245 219.287 16.7781 219.698 18.2914C219.864 18.8235 220.135 19.3173 220.493 19.7443C220.852 20.1713 221.291 20.5231 221.786 20.7794C222.281 21.0357 222.822 21.1915 223.378 21.2376C223.934 21.2838 224.493 21.2194 225.024 21.0484V21.0484C226.017 20.5643 226.95 19.9658 227.804 19.2652C228.232 18.9155 228.737 18.6717 229.277 18.5535C229.817 18.4353 230.378 18.446 230.913 18.5847C232.286 19.1009 232.767 20.7668 232.884 22.2215C233.109 23.6628 233.422 25.089 233.822 26.4918V26.4918Z" fill="#2F2E41"/>
<path opacity="0.2" d="M230.209 68.0806L227.675 99.0285L214.407 131.243L233.998 99.662L230.209 68.0806Z" fill="black"/>
<path d="M211.309 143.245C212.025 142.659 212.605 141.924 213.007 141.091C213.41 140.259 213.626 139.348 213.641 138.423C213.655 137.498 213.468 136.582 213.092 135.737C212.715 134.892 212.159 134.139 211.462 133.531L219.92 112.59L208.412 114.936L202.159 134.458C201.197 135.699 200.727 137.251 200.837 138.817C200.948 140.383 201.632 141.854 202.759 142.947C203.886 144.04 205.376 144.68 206.945 144.744C208.514 144.807 210.051 144.29 211.262 143.292L211.309 143.245Z" fill="#FFB8B8"/>
<path d="M210.699 134.012L204.188 131.666C203.517 131.42 202.962 130.933 202.632 130.299C202.302 129.665 202.221 128.93 202.405 128.24L213.14 88.9391L214.782 53.4158C214.831 52.3536 215.089 51.3114 215.541 50.3489C215.993 49.3864 216.631 48.5223 217.417 47.806C218.203 47.0898 219.122 46.5353 220.122 46.1744C221.122 45.8134 222.184 45.653 223.246 45.7023C224.309 45.7516 225.351 46.0097 226.313 46.4617C227.276 46.9138 228.14 47.551 228.856 48.337C229.572 49.1229 230.127 50.0423 230.488 51.0426C230.849 52.0428 231.009 53.1044 230.96 54.1667C230.96 54.237 230.96 54.3192 230.96 54.4013L228.039 93.2915L214.348 132.276C214.141 132.865 213.747 133.37 213.226 133.713C212.704 134.056 212.085 134.219 211.462 134.176C211.202 134.153 210.946 134.098 210.699 134.012V134.012Z" fill="#3F3D56"/>
<path d="M277.769 145.263C278.575 143.783 278.761 142.044 278.286 140.427C277.811 138.81 276.714 137.448 275.235 136.64C274.904 136.463 274.559 136.313 274.202 136.194L273.944 113.623L264.219 120.192L265.967 140.629C265.566 142.142 265.736 143.75 266.443 145.146C267.151 146.543 268.347 147.63 269.804 148.202C271.261 148.775 272.878 148.791 274.346 148.249C275.815 147.707 277.033 146.644 277.769 145.263V145.263Z" fill="#FFB8B8"/>
<path d="M273.639 137.05L266.729 137.391C266.015 137.423 265.314 137.188 264.765 136.729C264.215 136.271 263.857 135.624 263.761 134.915L258.529 94.5116L246.352 61.1001C245.616 59.0776 245.714 56.8457 246.623 54.8954C247.533 52.945 249.18 51.4359 251.203 50.7C253.225 49.9642 255.457 50.0618 257.407 50.9716C259.358 51.8813 260.867 53.5286 261.603 55.551C261.603 55.6331 261.661 55.7035 261.685 55.7739L273.968 92.7988L276.373 134.047C276.405 134.671 276.233 135.289 275.881 135.806C275.529 136.323 275.018 136.711 274.425 136.91C274.172 136.995 273.907 137.042 273.639 137.05V137.05Z" fill="#3F3D56"/>
<path d="M31.8865 67.8341C21.0465 70.5089 11.3092 62.1677 9.59644 54.4366L10.359 54.2958C19.5096 52.3132 29.7044 58.8477 31.8865 67.8341Z" fill="#EB721F"/>
<path d="M136.38 123.278C135.329 123.332 134.279 123.169 133.294 122.8C132.309 122.431 131.41 121.862 130.655 121.131C127.546 117.916 127.745 111.745 127.898 106.748C127.898 105.305 127.992 103.944 127.898 102.794C127.91 100.558 128.804 98.4165 130.385 96.8351C131.967 95.2537 134.108 94.3598 136.345 94.3475H156.429C157.483 94.2807 158.54 94.434 159.531 94.7975C160.523 95.161 161.428 95.7269 162.189 96.4592C165.31 99.6736 165.11 105.844 164.958 110.83C164.958 112.285 164.876 113.658 164.958 114.807C164.949 117.047 164.057 119.192 162.475 120.778C160.894 122.364 158.751 123.262 156.511 123.278H136.38ZM128.789 102.771C128.789 103.944 128.789 105.317 128.789 106.783C128.637 111.593 128.449 117.588 131.312 120.544C131.986 121.197 132.79 121.702 133.67 122.027C134.551 122.353 135.49 122.491 136.427 122.433H156.511C158.526 122.421 160.454 121.614 161.877 120.189C163.3 118.763 164.104 116.834 164.113 114.819C164.113 113.646 164.113 112.273 164.113 110.807C164.266 105.997 164.453 100.002 161.591 97.0458C160.916 96.3944 160.112 95.8911 159.231 95.5678C158.351 95.2446 157.412 95.1087 156.476 95.1687H136.38C134.359 95.1687 132.421 95.9681 130.988 97.3924C129.554 98.8168 128.743 100.75 128.731 102.771H128.789Z" fill="white"/>
<path d="M15.7555 116.579C14.4817 116.62 13.2206 116.314 12.1069 115.694C10.9933 115.074 10.0688 114.163 9.43221 113.059C8.69422 111.749 8.30652 110.27 8.30652 108.765C8.30652 107.261 8.69422 105.782 9.43221 104.472C10.08 103.346 11.0267 102.421 12.1676 101.8C13.3085 101.179 14.599 100.885 15.8963 100.952H42.6561C43.9534 100.885 45.2439 101.179 46.3848 101.8C47.5257 102.421 48.4724 103.346 49.1202 104.472C49.8582 105.782 50.2459 107.261 50.2459 108.765C50.2459 110.27 49.8582 111.749 49.1202 113.059C48.4724 114.185 47.5257 115.11 46.3848 115.731C45.2439 116.352 43.9534 116.646 42.6561 116.579H15.7555ZM15.7555 101.856C14.6299 101.811 13.5132 102.073 12.5253 102.615C11.5374 103.156 10.7155 103.956 10.1478 104.929C9.48497 106.11 9.13682 107.441 9.13682 108.795C9.13682 110.149 9.48497 111.48 10.1478 112.66C10.7268 113.65 11.5677 114.46 12.5778 115.003C13.588 115.545 14.7281 115.798 15.8728 115.734H42.6561C43.8011 115.799 44.942 115.547 45.9538 115.007C46.9656 114.467 47.8094 113.659 48.3928 112.672C49.0567 111.49 49.4054 110.157 49.4054 108.801C49.4054 107.445 49.0567 106.112 48.3928 104.929C47.8118 103.941 46.9706 103.132 45.9609 102.59C44.9513 102.048 43.8121 101.794 42.6678 101.856H15.7673H15.7555Z" fill="white"/>
<path d="M143.196 104.354H134.761C134.471 104.376 134.18 104.338 133.906 104.242C133.631 104.146 133.38 103.994 133.167 103.796C132.954 103.599 132.784 103.359 132.668 103.093C132.552 102.827 132.492 102.539 132.492 102.249C132.492 101.958 132.552 101.671 132.668 101.404C132.784 101.138 132.954 100.899 133.167 100.701C133.38 100.503 133.631 100.352 133.906 100.256C134.18 100.16 134.471 100.121 134.761 100.143H143.196C143.486 100.121 143.777 100.16 144.051 100.256C144.325 100.352 144.577 100.503 144.79 100.701C145.003 100.899 145.172 101.138 145.289 101.404C145.405 101.671 145.465 101.958 145.465 102.249C145.465 102.539 145.405 102.827 145.289 103.093C145.172 103.359 145.003 103.599 144.79 103.796C144.577 103.994 144.325 104.146 144.051 104.242C143.777 104.338 143.486 104.376 143.196 104.354V104.354Z" fill="#EB721F"/>
<path d="M143.196 111.1H134.761C134.471 111.122 134.18 111.083 133.906 110.987C133.631 110.891 133.38 110.74 133.167 110.542C132.954 110.344 132.784 110.105 132.668 109.839C132.552 109.572 132.492 109.285 132.492 108.994C132.492 108.704 132.552 108.416 132.668 108.15C132.784 107.884 132.954 107.644 133.167 107.446C133.38 107.249 133.631 107.097 133.906 107.001C134.18 106.905 134.471 106.867 134.761 106.888H143.196C143.486 106.867 143.777 106.905 144.051 107.001C144.325 107.097 144.577 107.249 144.79 107.446C145.003 107.644 145.172 107.884 145.289 108.15C145.405 108.416 145.465 108.704 145.465 108.994C145.465 109.285 145.405 109.572 145.289 109.839C145.172 110.105 145.003 110.344 144.79 110.542C144.577 110.74 144.325 110.891 144.051 110.987C143.777 111.083 143.486 111.122 143.196 111.1V111.1Z" fill="#EB721F"/>
<path d="M143.196 117.858H134.761C134.201 117.858 133.664 117.635 133.268 117.239C132.872 116.843 132.649 116.306 132.649 115.746C132.649 115.186 132.872 114.649 133.268 114.253C133.664 113.857 134.201 113.634 134.761 113.634H143.196C143.756 113.634 144.293 113.857 144.689 114.253C145.085 114.649 145.307 115.186 145.307 115.746C145.307 116.306 145.085 116.843 144.689 117.239C144.293 117.635 143.756 117.858 143.196 117.858V117.858Z" fill="#EB721F"/>
<path d="M157.954 104.354H149.519C149.229 104.376 148.938 104.338 148.664 104.242C148.39 104.146 148.138 103.994 147.925 103.796C147.712 103.599 147.542 103.359 147.426 103.093C147.31 102.827 147.25 102.539 147.25 102.249C147.25 101.958 147.31 101.671 147.426 101.404C147.542 101.138 147.712 100.899 147.925 100.701C148.138 100.503 148.39 100.352 148.664 100.256C148.938 100.16 149.229 100.121 149.519 100.143H157.954C158.244 100.121 158.535 100.16 158.809 100.256C159.083 100.352 159.335 100.503 159.548 100.701C159.761 100.899 159.931 101.138 160.047 101.404C160.163 101.671 160.223 101.958 160.223 102.249C160.223 102.539 160.163 102.827 160.047 103.093C159.931 103.359 159.761 103.599 159.548 103.796C159.335 103.994 159.083 104.146 158.809 104.242C158.535 104.338 158.244 104.376 157.954 104.354V104.354Z" fill="#EB721F"/>
<path d="M157.954 111.1H149.519C149.229 111.122 148.938 111.083 148.664 110.987C148.39 110.891 148.138 110.74 147.925 110.542C147.712 110.344 147.542 110.105 147.426 109.839C147.31 109.572 147.25 109.285 147.25 108.994C147.25 108.704 147.31 108.416 147.426 108.15C147.542 107.884 147.712 107.644 147.925 107.446C148.138 107.249 148.39 107.097 148.664 107.001C148.938 106.905 149.229 106.867 149.519 106.888H157.954C158.244 106.867 158.535 106.905 158.809 107.001C159.083 107.097 159.335 107.249 159.548 107.446C159.761 107.644 159.931 107.884 160.047 108.15C160.163 108.416 160.223 108.704 160.223 108.994C160.223 109.285 160.163 109.572 160.047 109.839C159.931 110.105 159.761 110.344 159.548 110.542C159.335 110.74 159.083 110.891 158.809 110.987C158.535 111.083 158.244 111.122 157.954 111.1V111.1Z" fill="#EB721F"/>
<path d="M157.954 117.858H149.519C148.959 117.858 148.422 117.635 148.026 117.239C147.63 116.843 147.407 116.306 147.407 115.746C147.407 115.186 147.63 114.649 148.026 114.253C148.422 113.857 148.959 113.634 149.519 113.634H157.954C158.514 113.634 159.051 113.857 159.447 114.253C159.843 114.649 160.066 115.186 160.066 115.746C160.066 116.306 159.843 116.843 159.447 117.239C159.051 117.635 158.514 117.858 157.954 117.858V117.858Z" fill="#EB721F"/>
</svg>
